<svg width="192" height="42" viewBox="0 0 192 42" fill="none" xmlns="http://www.w3.org/2000/svg">
<path d="M34.2353 5.20789C34.2353 5.70646 34.1522 6.30659 33.9861 7.00827C33.8383 7.70996 33.6167 8.43934 33.3213 9.19643C33.0259 9.95351 32.6658 10.7106 32.2411 11.4677C31.8348 12.2063 31.364 12.8803 30.8285 13.4896C30.293 14.0805 29.7113 14.5606 29.0835 14.9299C28.4557 15.2992 27.7817 15.4839 27.0615 15.4839C26.8953 15.4839 26.6737 15.4747 26.3968 15.4562C26.1383 15.4193 25.8705 15.3546 25.5935 15.2623C25.335 15.1515 25.1042 14.9946 24.9011 14.7915C24.7164 14.5883 24.6241 14.3206 24.6241 13.9882C24.6241 13.7666 24.6795 13.5081 24.7903 13.2127C24.9195 12.9172 25.1411 12.5756 25.455 12.1878C25.7874 11.8185 26.1475 11.3846 26.5353 10.886C26.923 10.369 27.2739 9.83348 27.5878 9.27952C27.9017 8.72556 28.1602 8.18083 28.3633 7.64533C28.5849 7.10983 28.6957 6.62973 28.6957 6.20503C28.6957 5.66953 28.5665 5.24482 28.3079 4.93091C28.0679 4.59854 27.6432 4.43235 27.0338 4.43235C26.2398 4.43235 25.3442 4.69086 24.3471 5.20789C23.35 5.72493 22.3067 6.43584 21.2172 7.34065C20.1278 8.24546 19.0198 9.30722 17.8934 10.5259C16.767 11.7262 15.6776 13.0188 14.6251 14.4037C13.5725 15.7701 12.5754 17.2012 11.6337 18.6969C10.7104 20.1741 9.89791 21.6421 9.19622 23.1009C8.513 24.5412 7.96827 25.9353 7.56203 27.2833C7.17426 28.6128 6.98037 29.8223 6.98037 30.9118C6.98037 32.2597 7.34045 33.34 8.0606 34.1524C8.78075 34.9649 9.97177 35.3712 11.6337 35.3712C12.4092 35.3712 13.5633 35.0757 15.0959 34.4848C16.6286 33.8755 17.9027 33.2753 18.9183 32.6844C19.9523 32.0751 20.9864 31.4103 22.0205 30.6902C23.073 29.9516 24.0701 29.2499 25.0119 28.5851C25.9536 27.9019 26.8122 27.2925 27.5878 26.757C28.3633 26.2031 29.0004 25.8153 29.499 25.5937C29.5913 25.5199 29.7021 25.4829 29.8313 25.4829C30.1083 25.4829 30.293 25.7137 30.3853 26.1754C30.4961 26.6186 30.5515 27.1264 30.5515 27.6988C30.5515 28.0127 30.5053 28.4005 30.413 28.8621C30.3391 29.3053 30.0806 29.8223 29.6374 30.4132C29.4343 30.6533 29.0558 31.0595 28.5018 31.6319C27.9479 32.2043 27.2554 32.8506 26.4245 33.5708C25.5935 34.2909 24.6426 35.0388 23.5716 35.8143C22.5006 36.5899 21.3372 37.3008 20.0816 37.9471C18.8444 38.5934 17.2379 39.2304 15.2621 39.8583C13.3048 40.4861 11.5967 40.8 10.138 40.8C8.42067 40.8 6.95267 40.5969 5.73395 40.1906C4.51524 39.7659 3.5181 39.1843 2.74256 38.4457C1.96701 37.707 1.39458 36.8299 1.02527 35.8143C0.674428 34.7803 0.499006 33.6539 0.499006 32.4352C0.499006 30.921 0.729824 29.296 1.19146 27.5603C1.6531 25.8245 2.29015 24.0611 3.10263 22.2699C3.93358 20.4788 4.91224 18.6877 6.03863 16.8965C7.18349 15.1054 8.42991 13.3973 9.77788 11.7724C11.1443 10.1289 12.5939 8.60553 14.1265 7.20216C15.6591 5.79879 17.2287 4.58007 18.8352 3.54601C20.4417 2.51194 22.0574 1.69946 23.6823 1.10857C25.3073 0.517676 26.9046 0.222229 28.4741 0.222229C29.2497 0.222229 29.9883 0.314556 30.69 0.499211C31.3917 0.665399 32.001 0.942381 32.5181 1.33015C33.0536 1.71793 33.469 2.23496 33.7645 2.88125C34.0784 3.50907 34.2353 4.28462 34.2353 5.20789ZM38.7778 24.929C37.91 24.929 37.0698 25.1506 36.2573 25.5937C35.4633 26.0184 34.7524 26.5909 34.1245 27.311C33.5152 28.0127 33.0259 28.8159 32.6565 29.7207C32.2872 30.6071 32.1026 31.5211 32.1026 32.4629C32.1026 32.8137 32.1303 33.2015 32.1857 33.6262C32.2411 34.0324 32.3519 34.4202 32.5181 34.7895C32.7027 35.1403 32.9612 35.4358 33.2936 35.6758C33.626 35.9159 34.0692 36.0359 34.6231 36.0359C35.4725 36.0359 36.2942 35.8143 37.0882 35.3712C37.9007 34.9095 38.6209 34.3186 39.2487 33.5985C39.8765 32.8599 40.3751 32.0289 40.7444 31.1057C41.1137 30.1824 41.2984 29.2499 41.2984 28.3081C41.2984 27.9388 41.2707 27.5603 41.2153 27.1725C41.1783 26.7663 41.0675 26.397 40.8829 26.0646C40.7167 25.7322 40.4674 25.4645 40.135 25.2613C39.8027 25.0398 39.3503 24.929 38.7778 24.929ZM40.2181 20.0541C40.9198 20.0541 41.6677 20.1464 42.4617 20.3311C43.2742 20.5157 44.022 20.8296 44.7052 21.2728C45.3885 21.716 45.9517 22.3069 46.3948 23.0455C46.8565 23.7656 47.0873 24.6612 47.0873 25.7322C47.0873 26.2862 47.0134 26.9232 46.8657 27.6434C46.718 28.3451 46.4964 29.0837 46.2009 29.8592C46.3856 30.0808 46.5979 30.2378 46.838 30.3301C47.078 30.4224 47.3366 30.4686 47.6135 30.4686C48.0013 30.4686 48.426 30.3578 48.8877 30.1362C49.3678 29.9146 49.8571 29.6284 50.3557 29.2776C50.8542 28.9267 51.3528 28.5297 51.8514 28.0866C52.3499 27.6434 52.8208 27.2002 53.264 26.757C53.7071 26.3139 54.1041 25.8984 54.455 25.5106C54.8243 25.1044 55.129 24.7628 55.369 24.4858C55.4983 24.3565 55.6552 24.2919 55.8399 24.2919C56.0984 24.2919 56.3292 24.4304 56.5323 24.7074C56.7355 24.9659 56.837 25.3352 56.837 25.8153C56.837 26.2954 56.6893 26.8494 56.3939 27.4772C56.1169 28.105 55.5906 28.7605 54.8151 29.4438C54.3719 29.9239 53.8641 30.4778 53.2917 31.1057C52.7192 31.7335 52.1099 32.3244 51.4636 32.8783C50.8173 33.4323 50.1433 33.9032 49.4416 34.2909C48.7399 34.6787 48.0382 34.8726 47.3366 34.8726C46.8565 34.8726 46.3856 34.7987 45.924 34.651C45.4808 34.5033 45.0284 34.2632 44.5667 33.9309C43.902 34.9649 43.1449 35.9067 42.2955 36.7561C41.4461 37.6055 40.4951 38.3349 39.4426 38.9442C38.4085 39.5536 37.2821 40.0245 36.0634 40.3568C34.8632 40.7077 33.5798 40.8831 32.2134 40.8831C31.6963 40.8831 31.0962 40.7815 30.413 40.5784C29.7298 40.3753 29.0743 40.0429 28.4464 39.5813C27.8371 39.1012 27.32 38.4826 26.8953 37.7255C26.4706 36.9684 26.2583 36.0452 26.2583 34.9557C26.2583 34.2171 26.3783 33.3307 26.6184 32.2967C26.8584 31.2626 27.2185 30.2008 27.6986 29.1114C28.1971 28.0035 28.8157 26.914 29.5544 25.843C30.3114 24.7535 31.207 23.7841 32.2411 22.9347C33.2751 22.0668 34.4569 21.3744 35.7864 20.8573C37.1159 20.3218 38.5932 20.0541 40.2181 20.0541ZM65.5619 24.652C64.5094 24.652 63.4569 24.9105 62.4043 25.4275C61.3518 25.9261 60.4008 26.5909 59.5514 27.4218C58.7205 28.2527 58.0373 29.1945 57.5018 30.247C56.9663 31.2811 56.6985 32.3336 56.6985 33.4046C56.6985 33.7 56.7262 34.0047 56.7816 34.3186C56.837 34.6141 56.9478 34.8911 57.114 35.1496C57.2987 35.4081 57.5572 35.6205 57.8896 35.7866C58.2219 35.9528 58.6651 36.0359 59.2191 36.0359C60.2901 36.0359 61.3241 35.7866 62.3213 35.2881C63.3369 34.771 64.2417 34.0971 65.0357 33.2661C65.8297 32.4352 66.4667 31.5027 66.9468 30.4686C67.4269 29.4161 67.667 28.3635 67.667 27.311C67.667 27.034 67.6393 26.7386 67.5839 26.4247C67.547 26.1108 67.4546 25.8245 67.3069 25.566C67.1592 25.3075 66.9468 25.0952 66.6699 24.929C66.3929 24.7443 66.0236 24.652 65.5619 24.652ZM67.8886 35.8143C66.319 37.6978 64.6479 39.0827 62.8752 39.9691C61.121 40.8369 59.2191 41.2709 57.1694 41.2709C56.043 41.2709 55.092 41.1047 54.3165 40.7723C53.5409 40.4584 52.9131 40.0245 52.433 39.4705C51.9529 38.9165 51.6021 38.2702 51.3805 37.5316C51.1774 36.793 51.0758 36.0082 51.0758 35.1773C51.0758 34.2355 51.1958 33.2661 51.4359 32.269C51.6759 31.2534 51.9898 30.2747 52.3776 29.333C52.6361 28.7236 52.8485 28.2158 53.0147 27.8096C53.1809 27.4033 53.3194 27.0617 53.4302 26.7847C53.5409 26.4893 53.6333 26.24 53.7071 26.0369C53.7995 25.8153 53.8918 25.5937 53.9841 25.3721C54.0764 25.1321 54.1872 24.8643 54.3165 24.5689C54.4457 24.255 54.6212 23.858 54.8428 23.3779L62.9306 5.40178C63.0414 5.16173 63.1984 4.93091 63.4015 4.70933C63.6231 4.48774 63.8723 4.29386 64.1493 4.12767C64.4263 3.94301 64.7218 3.80452 65.0357 3.71219C65.368 3.6014 65.7004 3.54601 66.0328 3.54601C66.8822 3.54601 67.4731 3.71219 67.8055 4.04457C68.1563 4.37695 68.3317 4.78319 68.3317 5.26329C68.3317 5.6326 68.2394 6.03884 68.0548 6.48201C67.8701 6.90671 67.667 7.30372 67.4454 7.67303C66.079 10.2951 64.7864 12.9634 63.5677 15.6778C62.349 18.3737 61.0564 21.042 59.6899 23.6826C60.2808 23.2209 60.9086 22.7777 61.5734 22.353C62.2382 21.9099 62.9306 21.5221 63.6508 21.1897C64.3709 20.8389 65.1188 20.5619 65.8943 20.3588C66.6699 20.1372 67.4639 20.0264 68.2764 20.0264C68.8488 20.0264 69.4304 20.1372 70.0213 20.3588C70.6122 20.5804 71.1477 20.9035 71.6278 21.3282C72.1264 21.7529 72.5234 22.2792 72.8188 22.907C73.1328 23.5164 73.2897 24.2273 73.2897 25.0398C73.2897 25.2244 73.2343 25.5937 73.1235 26.1477C73.0127 26.7016 72.8465 27.3295 72.625 28.0312C72.4218 28.7144 72.1633 29.4253 71.8494 30.1639C71.554 30.8841 71.2216 31.5211 70.8523 32.0751C70.9815 32.2782 71.1477 32.4075 71.3508 32.4629C71.554 32.4998 71.7848 32.5183 72.0433 32.5183C72.8927 32.5183 73.7329 32.4075 74.5638 32.1859C75.4132 31.9643 76.2073 31.6965 76.9459 31.3826C77.703 31.0503 78.3954 30.7086 79.0232 30.3578C79.6511 30.007 80.1773 29.7023 80.602 29.4438C80.8236 29.2037 81.0637 29.0837 81.3222 29.0837C81.6361 29.0837 81.9038 29.2222 82.1254 29.4992C82.3655 29.7761 82.4855 30.1362 82.4855 30.5794C82.4855 31.0041 82.3932 31.4288 82.2085 31.8535C82.0423 32.2597 81.7284 32.7121 81.2668 33.2107C80.4358 33.7093 79.5957 34.1801 78.7462 34.6233C77.9153 35.0665 77.0659 35.4543 76.198 35.7866C75.3301 36.1006 74.4438 36.3591 73.539 36.5622C72.6527 36.7468 71.7479 36.8392 70.8246 36.8392C70.2337 36.8392 69.689 36.7561 69.1904 36.5899C68.6918 36.4237 68.2579 36.1652 67.8886 35.8143ZM90.6564 24.652C89.6039 24.652 88.5514 24.9105 87.4989 25.4275C86.4463 25.9261 85.4954 26.5909 84.6459 27.4218C83.815 28.2527 83.1318 29.1945 82.5963 30.247C82.0608 31.2811 81.793 32.3336 81.793 33.4046C81.793 33.7 81.8207 34.0047 81.8761 34.3186C81.9315 34.6141 82.0423 34.8911 82.2085 35.1496C82.3932 35.4081 82.6517 35.6205 82.9841 35.7866C83.3164 35.9528 83.7596 36.0359 84.3136 36.0359C85.3846 36.0359 86.4186 35.7866 87.4158 35.2881C88.4314 34.771 89.3362 34.0971 90.1302 33.2661C90.9242 32.4352 91.5612 31.5027 92.0414 30.4686C92.5215 29.4161 92.7615 28.3635 92.7615 27.311C92.7615 27.034 92.7338 26.7386 92.6784 26.4247C92.6415 26.1108 92.5492 25.8245 92.4014 25.566C92.2537 25.3075 92.0414 25.0952 91.7644 24.929C91.4874 24.7443 91.1181 24.652 90.6564 24.652ZM92.9831 35.8143C91.4135 37.6978 89.7424 39.0827 87.9697 39.9691C86.2155 40.8369 84.3136 41.2709 82.2639 41.2709C81.1375 41.2709 80.1865 41.1047 79.411 40.7723C78.6355 40.4584 78.0076 40.0245 77.5275 39.4705C77.0474 38.9165 76.6966 38.2702 76.475 37.5316C76.2719 36.793 76.1703 36.0082 76.1703 35.1773C76.1703 34.2355 76.2903 33.2661 76.5304 32.269C76.7704 31.2534 77.0844 30.2747 77.4721 29.333C77.7306 28.7236 77.943 28.2158 78.1092 27.8096C78.2754 27.4033 78.4139 27.0617 78.5247 26.7847C78.6355 26.4893 78.7278 26.24 78.8016 26.0369C78.894 25.8153 78.9863 25.5937 79.0786 25.3721C79.1709 25.1321 79.2817 24.8643 79.411 24.5689C79.5403 24.255 79.7157 23.858 79.9373 23.3779L88.0251 5.40178C88.1359 5.16173 88.2929 4.93091 88.496 4.70933C88.7176 4.48774 88.9669 4.29386 89.2438 4.12767C89.5208 3.94301 89.8163 3.80452 90.1302 3.71219C90.4626 3.6014 90.7949 3.54601 91.1273 3.54601C91.9767 3.54601 92.5676 3.71219 92.9 4.04457C93.2508 4.37695 93.4263 4.78319 93.4263 5.26329C93.4263 5.6326 93.3339 6.03884 93.1493 6.48201C92.9646 6.90671 92.7615 7.30372 92.5399 7.67303C91.1735 10.2951 89.8809 12.9634 88.6622 15.6778C87.4435 18.3737 86.1509 21.042 84.7844 23.6826C85.3753 23.2209 86.0032 22.7777 86.6679 22.353C87.3327 21.9099 88.0251 21.5221 88.7453 21.1897C89.4654 20.8389 90.2133 20.5619 90.9888 20.3588C91.7644 20.1372 92.5584 20.0264 93.3709 20.0264C93.9433 20.0264 94.525 20.1372 95.1158 20.3588C95.7067 20.5804 96.2422 20.9035 96.7223 21.3282C97.2209 21.7529 97.6179 22.2792 97.9134 22.907C98.2273 23.5164 98.3842 24.2273 98.3842 25.0398C98.3842 25.2244 98.3288 25.5937 98.218 26.1477C98.1072 26.7016 97.9411 27.3295 97.7195 28.0312C97.5163 28.7144 97.2578 29.4253 96.9439 30.1639C96.6485 30.8841 96.3161 31.5211 95.9468 32.0751C96.076 32.2782 96.2422 32.4075 96.4454 32.4629C96.6485 32.4998 96.8793 32.5183 97.1378 32.5183C97.9872 32.5183 98.8274 32.4075 99.6583 32.1859C100.508 31.9643 101.302 31.6965 102.04 31.3826C102.797 31.0503 103.49 30.7086 104.118 30.3578C104.746 30.007 105.272 29.7023 105.697 29.4438C105.918 29.2037 106.158 29.0837 106.417 29.0837C106.731 29.0837 106.998 29.2222 107.22 29.4992C107.46 29.7761 107.58 30.1362 107.58 30.5794C107.58 31.0041 107.488 31.4288 107.303 31.8535C107.137 32.2597 106.823 32.7121 106.361 33.2107C105.53 33.7093 104.69 34.1801 103.841 34.6233C103.01 35.0665 102.16 35.4543 101.293 35.7866C100.425 36.1006 99.5383 36.3591 98.6335 36.5622C97.7472 36.7468 96.8424 36.8392 95.9191 36.8392C95.3282 36.8392 94.7835 36.7561 94.2849 36.5899C93.7863 36.4237 93.3524 36.1652 92.9831 35.8143ZM106.5 32.1859C106.297 32.6106 106.094 33.1092 105.89 33.6816C105.706 34.2355 105.613 34.7341 105.613 35.1773C105.613 35.4543 105.669 35.6758 105.78 35.842C105.89 36.0082 106.103 36.0913 106.417 36.0913C106.804 36.0913 107.285 35.9805 107.857 35.7589C108.448 35.5189 109.076 35.2142 109.74 34.8449C110.424 34.4571 111.125 34.0232 111.846 33.5431C112.584 33.0445 113.314 32.5367 114.034 32.0197C114.754 31.4842 115.437 30.9579 116.083 30.4409C116.748 29.9054 117.339 29.4161 117.856 28.9729C118.004 28.8436 118.179 28.7513 118.382 28.6959C118.585 28.6405 118.761 28.6128 118.909 28.6128C119.278 28.6128 119.583 28.7421 119.823 29.0006C120.063 29.2591 120.183 29.6007 120.183 30.0254C120.183 30.4132 120.053 30.8471 119.795 31.3272C119.536 31.8073 119.084 32.2782 118.438 32.7398C117.256 33.8293 116.065 34.8634 114.865 35.842C113.664 36.8207 112.464 37.6886 111.264 38.4457C110.082 39.1843 108.9 39.7752 107.718 40.2183C106.555 40.6615 105.42 40.8831 104.312 40.8831C103.555 40.8831 102.917 40.7815 102.4 40.5784C101.902 40.3753 101.496 40.0983 101.182 39.7475C100.886 39.3966 100.674 38.9812 100.545 38.5011C100.415 38.021 100.351 37.5132 100.351 36.9777C100.351 36.0729 100.48 35.1496 100.739 34.2078C101.016 33.2476 101.339 32.3705 101.708 31.5765C102.354 30.1362 103.01 28.7051 103.675 27.2833C104.339 25.8615 104.949 24.5597 105.503 23.3779L113.895 5.51257C114.228 4.79242 114.671 4.28462 115.225 3.98918C115.797 3.69373 116.37 3.54601 116.942 3.54601C117.514 3.54601 118.031 3.70296 118.493 4.01687C118.973 4.33079 119.213 4.83859 119.213 5.54027C119.213 5.87265 119.13 6.22349 118.964 6.5928C118.816 6.96211 118.622 7.35912 118.382 7.78382C117.921 8.6517 117.367 9.71346 116.72 10.9691C116.093 12.2248 115.409 13.5912 114.671 15.0684C113.951 16.5457 113.203 18.0875 112.427 19.694C111.67 21.282 110.922 22.8331 110.184 24.3473C109.463 25.8615 108.78 27.3018 108.134 28.6682C107.506 30.0162 106.961 31.1887 106.5 32.1859ZM127.91 23.8487C127.818 23.8303 127.735 23.821 127.661 23.821C127.587 23.821 127.504 23.821 127.412 23.821C126.71 23.821 126.055 23.9595 125.445 24.2365C124.836 24.5135 124.273 24.8828 123.756 25.3444C123.257 25.7876 122.805 26.2954 122.399 26.8678C122.011 27.4403 121.66 28.0127 121.346 28.5851C121.032 29.1391 120.764 29.6746 120.543 30.1916C120.34 30.7086 120.183 31.1426 120.072 31.4934C120.718 31.1611 121.383 30.7825 122.066 30.3578C122.768 29.9331 123.423 29.5269 124.033 29.1391C124.642 28.7513 125.168 28.4005 125.611 28.0866C126.073 27.7726 126.396 27.5603 126.581 27.4495C127.412 26.9325 127.984 26.4524 128.298 26.0092C128.612 25.5476 128.769 25.1506 128.769 24.8182C128.769 24.5412 128.677 24.3196 128.492 24.1534C128.326 23.9872 128.132 23.8857 127.91 23.8487ZM128.908 20.0264C130.44 20.0264 131.585 20.3957 132.342 21.1343C133.099 21.8729 133.478 22.8978 133.478 24.2088C133.478 24.9844 133.275 25.7968 132.868 26.6463C132.462 27.4957 131.76 28.3635 130.763 29.2499C129.766 30.1178 128.427 31.0133 126.747 31.9366C125.085 32.8414 122.999 33.7554 120.487 34.6787C120.58 35.2142 120.866 35.6389 121.346 35.9528C121.826 36.2483 122.463 36.396 123.257 36.396C124.107 36.396 125.011 36.276 125.972 36.0359C126.95 35.7774 127.91 35.4543 128.852 35.0665C129.812 34.6787 130.745 34.2632 131.65 33.8201C132.554 33.3584 133.367 32.9245 134.087 32.5183C134.826 32.112 135.435 31.7612 135.915 31.4657C136.414 31.1703 136.746 30.9856 136.912 30.9118C137.079 30.801 137.226 30.7363 137.356 30.7179C137.503 30.6994 137.632 30.6902 137.743 30.6902C137.965 30.6902 138.15 30.7456 138.297 30.8564C138.445 30.9487 138.565 31.0687 138.657 31.2164C138.768 31.3457 138.842 31.4934 138.879 31.6596C138.916 31.8073 138.934 31.9366 138.934 32.0474C138.934 32.2136 138.916 32.4167 138.879 32.6567C138.842 32.8783 138.703 33.1369 138.463 33.4323C138.371 33.5246 138.057 33.7739 137.522 34.1801C137.005 34.5864 136.331 35.0665 135.5 35.6205C134.669 36.1744 133.699 36.7653 132.591 37.3931C131.502 38.0025 130.339 38.5657 129.101 39.0827C127.883 39.5997 126.609 40.0245 125.279 40.3568C123.95 40.7077 122.639 40.8831 121.346 40.8831C120.238 40.8831 119.25 40.6707 118.382 40.246C117.533 39.8213 116.803 39.2489 116.194 38.5288C115.603 37.8086 115.151 36.9777 114.837 36.0359C114.523 35.0942 114.366 34.1063 114.366 33.0722C114.366 32.2782 114.523 31.4103 114.837 30.4686C115.151 29.5084 115.603 28.5482 116.194 27.588C116.785 26.6278 117.505 25.6953 118.355 24.7905C119.222 23.8672 120.192 23.0547 121.263 22.353C122.334 21.6514 123.506 21.0882 124.781 20.6635C126.073 20.2388 127.449 20.0264 128.908 20.0264ZM145.637 24.0426C146.357 23.5995 147.096 23.1932 147.853 22.8239C148.629 22.4546 149.377 22.1407 150.097 21.8822C150.817 21.6052 151.5 21.3928 152.146 21.2451C152.811 21.0789 153.402 20.9958 153.919 20.9958C154.75 20.9958 155.387 21.199 155.83 21.6052C156.292 21.993 156.523 22.6577 156.523 23.5995C156.523 23.8026 156.513 24.0242 156.495 24.2642C156.476 24.4858 156.44 24.7258 156.384 24.9844C156.292 25.4645 156.015 26.0277 155.553 26.674C155.092 27.3202 154.547 27.9942 153.919 28.6959C153.31 29.3976 152.645 30.1085 151.925 30.8287C151.223 31.5304 150.568 32.1859 149.958 32.7952C149.367 33.3861 148.869 33.9032 148.462 34.3463C148.075 34.7895 147.881 35.0942 147.881 35.2604C147.881 35.4081 147.89 35.5097 147.909 35.5651C147.927 35.6205 148.01 35.6481 148.158 35.6481C149.155 35.2234 150.263 34.7156 151.482 34.1248C152.719 33.5154 153.947 32.8968 155.165 32.269C156.384 31.6412 157.538 31.0318 158.628 30.4409C159.717 29.8315 160.64 29.3053 161.397 28.8621C161.564 28.7698 161.73 28.6959 161.896 28.6405C162.081 28.5667 162.247 28.5297 162.395 28.5297C162.727 28.5297 163.004 28.6405 163.226 28.8621C163.447 29.0837 163.558 29.3791 163.558 29.7484C163.558 30.1731 163.373 30.6625 163.004 31.2164C162.653 31.7519 162.053 32.3151 161.204 32.906C160.557 33.3123 159.828 33.7739 159.015 34.2909C158.221 34.7895 157.381 35.3158 156.495 35.8697C155.627 36.4052 154.741 36.9315 153.836 37.4485C152.95 37.9656 152.091 38.4272 151.26 38.8334C150.429 39.2397 149.644 39.5721 148.906 39.8306C148.185 40.0706 147.558 40.1906 147.022 40.1906C145.748 40.1906 144.788 39.886 144.142 39.2766C143.514 38.6672 143.2 37.8825 143.2 36.9223C143.2 36.7745 143.209 36.6637 143.228 36.5899C143.357 35.7774 143.597 34.9926 143.948 34.2355C144.299 33.4785 144.696 32.7583 145.139 32.0751C145.582 31.3919 146.043 30.7456 146.524 30.1362C147.004 29.5084 147.438 28.9267 147.825 28.3912C148.232 27.8373 148.564 27.3295 148.823 26.8678C149.081 26.4062 149.21 25.9815 149.21 25.5937C149.21 25.5014 149.192 25.4091 149.155 25.3167C149.118 25.2244 149.035 25.1783 148.906 25.1783C148.684 25.1783 148.315 25.2613 147.798 25.4275C147.299 25.5937 146.764 25.8153 146.191 26.0923C145.619 26.3693 145.074 26.6924 144.557 27.0617C144.04 27.4126 143.671 27.7911 143.449 28.1973C143.154 28.7144 142.812 29.3699 142.424 30.1639C142.036 30.9579 141.63 31.7889 141.206 32.6567C140.799 33.5246 140.402 34.3833 140.015 35.2327C139.627 36.0821 139.294 36.8115 139.017 37.4208C138.796 37.9563 138.5 38.4364 138.131 38.8611C137.78 39.2858 137.392 39.6459 136.968 39.9414C136.543 40.2368 136.109 40.4676 135.666 40.6338C135.223 40.8 134.817 40.8831 134.447 40.8831C134.023 40.8831 133.681 40.7723 133.422 40.5507C133.182 40.3291 133.062 39.9691 133.062 39.4705C133.062 39.2674 133.09 39.0181 133.145 38.7226C133.219 38.4087 133.358 38.0671 133.561 37.6978C133.893 37.07 134.226 36.3868 134.558 35.6481C134.909 34.9095 135.306 34.0694 135.749 33.1276C136.192 32.1674 136.7 31.078 137.272 29.8592C137.863 28.6221 138.556 27.2002 139.35 25.5937C139.091 25.3721 138.87 25.1044 138.685 24.7905C138.519 24.4581 138.436 24.0519 138.436 23.5718C138.436 23.1286 138.528 22.75 138.713 22.4361C138.897 22.1038 139.147 21.836 139.461 21.6329C139.774 21.4298 140.135 21.282 140.541 21.1897C140.966 21.0789 141.409 21.0235 141.87 21.0235C142.35 21.0235 142.831 21.0697 143.311 21.162C143.791 21.2359 144.215 21.3559 144.585 21.5221C144.973 21.6883 145.286 21.8914 145.526 22.1315C145.767 22.3715 145.887 22.6485 145.887 22.9624C145.887 23.0178 145.868 23.0917 145.831 23.184C145.794 23.2763 145.748 23.3779 145.693 23.4887C145.656 23.5995 145.619 23.701 145.582 23.7933C145.545 23.8857 145.526 23.9595 145.526 24.0149C145.526 24.0519 145.536 24.0703 145.554 24.0703H145.582L145.637 24.0426ZM178.487 2.29959C177.73 3.38905 177.001 4.43235 176.299 5.42948C175.616 6.40815 174.923 7.38681 174.222 8.36548C173.539 9.32568 172.846 10.3044 172.144 11.3015C171.443 12.2986 170.723 13.3327 169.984 14.4037C169.688 14.8284 169.384 15.1331 169.07 15.3177C168.756 15.5024 168.451 15.5947 168.156 15.5947C167.86 15.5947 167.62 15.5208 167.436 15.3731C167.251 15.2254 167.159 15.0315 167.159 14.7915C167.159 14.6807 167.186 14.5514 167.242 14.4037C167.648 13.3327 168.027 12.2986 168.377 11.3015C168.747 10.3044 169.107 9.32568 169.458 8.36548C169.808 7.38681 170.159 6.40815 170.51 5.42948C170.879 4.43235 171.267 3.38905 171.674 2.29959C171.803 1.91182 172.015 1.57944 172.311 1.30246C172.606 1.00701 172.948 0.776192 173.335 0.610003C173.723 0.425349 174.139 0.286858 174.582 0.194531C175.025 0.102204 175.459 0.0560403 175.884 0.0560403C176.271 0.0560403 176.631 0.0929711 176.964 0.166833C177.315 0.222229 177.619 0.314556 177.878 0.443814C178.136 0.573072 178.34 0.730028 178.487 0.914683C178.653 1.09934 178.737 1.31169 178.737 1.55174C178.737 1.77332 178.653 2.02261 178.487 2.29959ZM184.248 24.5966C185.375 25.1875 186.381 25.8615 187.268 26.6186C188.154 27.3756 188.902 28.1789 189.511 29.0283C190.139 29.8592 190.61 30.7086 190.924 31.5765C191.256 32.4444 191.422 33.2938 191.422 34.1248C191.422 35.1773 191.118 36.1282 190.508 36.9777C189.917 37.8086 189.133 38.5195 188.154 39.1104C187.194 39.6828 186.086 40.1168 184.83 40.4122C183.593 40.7261 182.337 40.8831 181.063 40.8831C180.103 40.8831 179.17 40.7723 178.266 40.5507C177.361 40.3476 176.53 40.0245 175.773 39.5813C175.034 39.1381 174.397 38.5749 173.862 37.8917C173.326 37.19 172.948 36.3591 172.726 35.3989C172.689 35.2511 172.671 35.1311 172.671 35.0388C172.671 34.5402 172.846 34.1155 173.197 33.7647C173.548 33.3954 173.936 33.2107 174.36 33.2107C174.563 33.2107 174.785 33.2476 175.025 33.3215C175.283 33.3954 175.477 33.5616 175.607 33.8201C175.847 34.2632 176.179 34.6602 176.604 35.0111C177.047 35.3619 177.536 35.6666 178.072 35.9251C178.607 36.1652 179.17 36.3591 179.761 36.5068C180.371 36.636 180.962 36.7007 181.534 36.7007C182.125 36.7007 182.688 36.6453 183.224 36.5345C183.778 36.4237 184.258 36.2483 184.664 36.0082C185.089 35.7682 185.421 35.4635 185.661 35.0942C185.901 34.7249 186.021 34.2725 186.021 33.737C186.021 32.7952 185.809 31.9274 185.384 31.1334C184.959 30.3393 184.405 29.61 183.722 28.9452C183.057 28.262 182.291 27.6342 181.423 27.0617C180.574 26.4708 179.724 25.9076 178.875 25.3721C178.783 25.3167 178.644 25.1598 178.46 24.9013C178.275 24.6243 178.183 24.3473 178.183 24.0703C178.183 23.8487 178.238 23.6733 178.349 23.5441C178.644 23.1563 178.986 22.7593 179.374 22.353C179.761 21.9468 180.177 21.5775 180.62 21.2451C181.063 20.8943 181.543 20.6173 182.06 20.4142C182.577 20.1926 183.113 20.0818 183.667 20.0818C184.073 20.0818 184.452 20.1372 184.802 20.248C185.153 20.3588 185.449 20.5065 185.689 20.6912C185.929 20.8573 186.113 21.0512 186.243 21.2728C186.39 21.4759 186.464 21.6698 186.464 21.8545C186.464 22.113 186.4 22.3623 186.27 22.6023C186.141 22.8424 185.966 23.0732 185.744 23.2948C185.541 23.5164 185.301 23.7379 185.024 23.9595C184.765 24.1811 184.507 24.3935 184.248 24.5966Z" fill="white"/>
</svg>
