<svg width="192" height="42" viewBox="0 0 192 42" fill="none" xmlns="http://www.w3.org/2000/svg">
<path d="M34.2353 5.4716C34.2353 5.97016 34.1522 6.57029 33.9861 7.27198C33.8383 7.97366 33.6167 8.70305 33.3213 9.46013C33.0259 10.2172 32.6658 10.9743 32.2411 11.7314C31.8348 12.47 31.364 13.144 30.8285 13.7533C30.293 14.3442 29.7113 14.8243 29.0835 15.1936C28.4557 15.563 27.7817 15.7476 27.0615 15.7476C26.8953 15.7476 26.6737 15.7384 26.3968 15.7199C26.1383 15.683 25.8705 15.6183 25.5935 15.526C25.335 15.4152 25.1042 15.2583 24.9011 15.0552C24.7164 14.852 24.6241 14.5843 24.6241 14.2519C24.6241 14.0303 24.6795 13.7718 24.7903 13.4764C24.9195 13.1809 25.1411 12.8393 25.455 12.4515C25.7874 12.0822 26.1475 11.6483 26.5353 11.1497C26.923 10.6327 27.2739 10.0972 27.5878 9.54322C27.9017 8.98926 28.1602 8.44453 28.3633 7.90903C28.5849 7.37354 28.6957 6.89343 28.6957 6.46873C28.6957 5.93323 28.5665 5.50853 28.3079 5.19462C28.0679 4.86224 27.6432 4.69605 27.0338 4.69605C26.2398 4.69605 25.3442 4.95456 24.3471 5.4716C23.35 5.98863 22.3067 6.69955 21.2172 7.60435C20.1278 8.50916 19.0198 9.57092 17.8934 10.7896C16.767 11.9899 15.6776 13.2825 14.6251 14.6674C13.5725 16.0338 12.5754 17.4649 11.6337 18.9606C10.7104 20.4378 9.89791 21.9058 9.19622 23.3646C8.513 24.8049 7.96827 26.199 7.56203 27.547C7.17426 28.8765 6.98037 30.086 6.98037 31.1755C6.98037 32.5234 7.34045 33.6037 8.0606 34.4162C8.78075 35.2286 9.97177 35.6349 11.6337 35.6349C12.4092 35.6349 13.5633 35.3394 15.0959 34.7485C16.6286 34.1392 17.9027 33.539 18.9183 32.9482C19.9523 32.3388 20.9864 31.674 22.0205 30.9539C23.073 30.2153 24.0701 29.5136 25.0119 28.8488C25.9536 28.1656 26.8122 27.5562 27.5878 27.0207C28.3633 26.4668 29.0004 26.079 29.499 25.8574C29.5913 25.7836 29.7021 25.7466 29.8313 25.7466C30.1083 25.7466 30.293 25.9775 30.3853 26.4391C30.4961 26.8823 30.5515 27.3901 30.5515 27.9625C30.5515 28.2764 30.5053 28.6642 30.413 29.1258C30.3391 29.569 30.0806 30.086 29.6374 30.6769C29.4343 30.917 29.0558 31.3232 28.5018 31.8956C27.9479 32.468 27.2554 33.1143 26.4245 33.8345C25.5935 34.5546 24.6426 35.3025 23.5716 36.078C22.5006 36.8536 21.3372 37.5645 20.0816 38.2108C18.8444 38.8571 17.2379 39.4941 15.2621 40.122C13.3048 40.7498 11.5967 41.0637 10.138 41.0637C8.42067 41.0637 6.95267 40.8606 5.73395 40.4543C4.51524 40.0296 3.5181 39.448 2.74256 38.7094C1.96701 37.9707 1.39458 37.0936 1.02527 36.078C0.674428 35.044 0.499006 33.9176 0.499006 32.6989C0.499006 31.1847 0.729824 29.5597 1.19146 27.824C1.6531 26.0882 2.29015 24.3248 3.10263 22.5336C3.93358 20.7425 4.91224 18.9514 6.03863 17.1602C7.18349 15.3691 8.42991 13.661 9.77788 12.0361C11.1443 10.3926 12.5939 8.86923 14.1265 7.46586C15.6591 6.06249 17.2287 4.84377 18.8352 3.80971C20.4417 2.77564 22.0574 1.96317 23.6823 1.37227C25.3073 0.781378 26.9046 0.485932 28.4741 0.485932C29.2497 0.485932 29.9883 0.578259 30.69 0.762913C31.3917 0.929102 32.001 1.20608 32.5181 1.59386C33.0536 1.98163 33.469 2.49866 33.7645 3.14495C34.0784 3.77278 34.2353 4.54833 34.2353 5.4716ZM38.7778 25.1927C37.91 25.1927 37.0698 25.4143 36.2573 25.8574C35.4633 26.2821 34.7524 26.8546 34.1245 27.5747C33.5152 28.2764 33.0259 29.0796 32.6565 29.9844C32.2872 30.8708 32.1026 31.7848 32.1026 32.7266C32.1026 33.0774 32.1303 33.4652 32.1857 33.8899C32.2411 34.2961 32.3519 34.6839 32.5181 35.0532C32.7027 35.4041 32.9612 35.6995 33.2936 35.9395C33.626 36.1796 34.0692 36.2996 34.6231 36.2996C35.4725 36.2996 36.2942 36.078 37.0882 35.6349C37.9007 35.1732 38.6209 34.5823 39.2487 33.8622C39.8765 33.1236 40.3751 32.2926 40.7444 31.3694C41.1137 30.4461 41.2984 29.5136 41.2984 28.5718C41.2984 28.2025 41.2707 27.824 41.2153 27.4362C41.1783 27.03 41.0675 26.6607 40.8829 26.3283C40.7167 25.9959 40.4674 25.7282 40.135 25.525C39.8027 25.3035 39.3503 25.1927 38.7778 25.1927ZM40.2181 20.3178C40.9198 20.3178 41.6677 20.4101 42.4617 20.5948C43.2742 20.7794 44.022 21.0933 44.7052 21.5365C45.3885 21.9797 45.9517 22.5706 46.3948 23.3092C46.8565 24.0293 47.0873 24.9249 47.0873 25.9959C47.0873 26.5499 47.0134 27.1869 46.8657 27.9071C46.718 28.6088 46.4964 29.3474 46.2009 30.1229C46.3856 30.3445 46.5979 30.5015 46.838 30.5938C47.078 30.6861 47.3366 30.7323 47.6135 30.7323C48.0013 30.7323 48.426 30.6215 48.8877 30.3999C49.3678 30.1783 49.8571 29.8921 50.3557 29.5413C50.8542 29.1904 51.3528 28.7934 51.8514 28.3503C52.3499 27.9071 52.8208 27.4639 53.264 27.0207C53.7071 26.5776 54.1041 26.1621 54.455 25.7743C54.8243 25.3681 55.129 25.0265 55.369 24.7495C55.4983 24.6202 55.6552 24.5556 55.8399 24.5556C56.0984 24.5556 56.3292 24.6941 56.5323 24.9711C56.7355 25.2296 56.837 25.5989 56.837 26.079C56.837 26.5591 56.6893 27.1131 56.3939 27.7409C56.1169 28.3687 55.5906 29.0242 54.8151 29.7075C54.3719 30.1876 53.8641 30.7415 53.2917 31.3694C52.7192 31.9972 52.1099 32.5881 51.4636 33.142C50.8173 33.696 50.1433 34.1669 49.4416 34.5546C48.7399 34.9424 48.0382 35.1363 47.3366 35.1363C46.8565 35.1363 46.3856 35.0624 45.924 34.9147C45.4808 34.767 45.0284 34.5269 44.5667 34.1946C43.902 35.2286 43.1449 36.1704 42.2955 37.0198C41.4461 37.8692 40.4951 38.5986 39.4426 39.2079C38.4085 39.8173 37.2821 40.2882 36.0634 40.6205C34.8632 40.9714 33.5798 41.1468 32.2134 41.1468C31.6963 41.1468 31.0962 41.0452 30.413 40.8421C29.7298 40.639 29.0743 40.3066 28.4464 39.845C27.8371 39.3649 27.32 38.7463 26.8953 37.9892C26.4706 37.2321 26.2583 36.3089 26.2583 35.2194C26.2583 34.4808 26.3783 33.5944 26.6184 32.5604C26.8584 31.5263 27.2185 30.4646 27.6986 29.3751C28.1971 28.2672 28.8157 27.1777 29.5544 26.1067C30.3114 25.0172 31.207 24.0478 32.2411 23.1984C33.2751 22.3305 34.4569 21.6381 35.7864 21.121C37.1159 20.5855 38.5932 20.3178 40.2181 20.3178ZM65.5619 24.9157C64.5094 24.9157 63.4569 25.1742 62.4043 25.6912C61.3518 26.1898 60.4008 26.8546 59.5514 27.6855C58.7205 28.5164 58.0373 29.4582 57.5018 30.5107C56.9663 31.5448 56.6985 32.5973 56.6985 33.6683C56.6985 33.9637 56.7262 34.2684 56.7816 34.5823C56.837 34.8778 56.9478 35.1548 57.114 35.4133C57.2987 35.6718 57.5572 35.8842 57.8896 36.0503C58.2219 36.2165 58.6651 36.2996 59.2191 36.2996C60.2901 36.2996 61.3241 36.0503 62.3213 35.5518C63.3369 35.0347 64.2417 34.3608 65.0357 33.5298C65.8297 32.6989 66.4667 31.7664 66.9468 30.7323C67.4269 29.6798 67.667 28.6272 67.667 27.5747C67.667 27.2977 67.6393 27.0023 67.5839 26.6884C67.547 26.3745 67.4546 26.0882 67.3069 25.8297C67.1592 25.5712 66.9468 25.3589 66.6699 25.1927C66.3929 25.008 66.0236 24.9157 65.5619 24.9157ZM67.8886 36.078C66.319 37.9615 64.6479 39.3464 62.8752 40.2328C61.121 41.1006 59.2191 41.5346 57.1694 41.5346C56.043 41.5346 55.092 41.3684 54.3165 41.036C53.5409 40.7221 52.9131 40.2882 52.433 39.7342C51.9529 39.1802 51.6021 38.5339 51.3805 37.7953C51.1774 37.0567 51.0758 36.2719 51.0758 35.441C51.0758 34.4992 51.1958 33.5298 51.4359 32.5327C51.6759 31.5171 51.9898 30.5384 52.3776 29.5967C52.6361 28.9873 52.8485 28.4795 53.0147 28.0733C53.1809 27.667 53.3194 27.3254 53.4302 27.0484C53.5409 26.753 53.6333 26.5037 53.7071 26.3006C53.7995 26.079 53.8918 25.8574 53.9841 25.6358C54.0764 25.3958 54.1872 25.128 54.3165 24.8326C54.4457 24.5187 54.6212 24.1217 54.8428 23.6416L62.9306 5.66548C63.0414 5.42543 63.1984 5.19462 63.4015 4.97303C63.6231 4.75144 63.8723 4.55756 64.1493 4.39137C64.4263 4.20671 64.7218 4.06822 65.0357 3.9759C65.368 3.8651 65.7004 3.80971 66.0328 3.80971C66.8822 3.80971 67.4731 3.9759 67.8055 4.30827C68.1563 4.64065 68.3317 5.04689 68.3317 5.52699C68.3317 5.8963 68.2394 6.30254 68.0548 6.74571C67.8701 7.17042 67.667 7.56742 67.4454 7.93673C66.079 10.5588 64.7864 13.2271 63.5677 15.9415C62.349 18.6374 61.0564 21.3057 59.6899 23.9463C60.2808 23.4846 60.9086 23.0414 61.5734 22.6167C62.2382 22.1736 62.9306 21.7858 63.6508 21.4534C64.3709 21.1026 65.1188 20.8256 65.8943 20.6225C66.6699 20.4009 67.4639 20.2901 68.2764 20.2901C68.8488 20.2901 69.4304 20.4009 70.0213 20.6225C70.6122 20.8441 71.1477 21.1672 71.6278 21.5919C72.1264 22.0166 72.5234 22.5429 72.8188 23.1707C73.1328 23.7801 73.2897 24.491 73.2897 25.3035C73.2897 25.4881 73.2343 25.8574 73.1235 26.4114C73.0127 26.9654 72.8465 27.5932 72.625 28.2949C72.4218 28.9781 72.1633 29.689 71.8494 30.4276C71.554 31.1478 71.2216 31.7848 70.8523 32.3388C70.9815 32.5419 71.1477 32.6712 71.3508 32.7266C71.554 32.7635 71.7848 32.782 72.0433 32.782C72.8927 32.782 73.7329 32.6712 74.5638 32.4496C75.4132 32.228 76.2073 31.9602 76.9459 31.6463C77.703 31.314 78.3954 30.9723 79.0232 30.6215C79.6511 30.2707 80.1773 29.966 80.602 29.7075C80.8236 29.4674 81.0637 29.3474 81.3222 29.3474C81.6361 29.3474 81.9038 29.4859 82.1254 29.7629C82.3655 30.0398 82.4855 30.3999 82.4855 30.8431C82.4855 31.2678 82.3932 31.6925 82.2085 32.1172C82.0423 32.5234 81.7284 32.9758 81.2668 33.4744C80.4358 33.973 79.5957 34.4438 78.7462 34.887C77.9153 35.3302 77.0659 35.718 76.198 36.0503C75.3301 36.3643 74.4438 36.6228 73.539 36.8259C72.6527 37.0105 71.7479 37.1029 70.8246 37.1029C70.2337 37.1029 69.689 37.0198 69.1904 36.8536C68.6918 36.6874 68.2579 36.4289 67.8886 36.078ZM90.6564 24.9157C89.6039 24.9157 88.5514 25.1742 87.4989 25.6912C86.4463 26.1898 85.4954 26.8546 84.6459 27.6855C83.815 28.5164 83.1318 29.4582 82.5963 30.5107C82.0608 31.5448 81.793 32.5973 81.793 33.6683C81.793 33.9637 81.8207 34.2684 81.8761 34.5823C81.9315 34.8778 82.0423 35.1548 82.2085 35.4133C82.3932 35.6718 82.6517 35.8842 82.9841 36.0503C83.3164 36.2165 83.7596 36.2996 84.3136 36.2996C85.3846 36.2996 86.4186 36.0503 87.4158 35.5518C88.4314 35.0347 89.3362 34.3608 90.1302 33.5298C90.9242 32.6989 91.5612 31.7664 92.0414 30.7323C92.5215 29.6798 92.7615 28.6272 92.7615 27.5747C92.7615 27.2977 92.7338 27.0023 92.6784 26.6884C92.6415 26.3745 92.5492 26.0882 92.4014 25.8297C92.2537 25.5712 92.0414 25.3589 91.7644 25.1927C91.4874 25.008 91.1181 24.9157 90.6564 24.9157ZM92.9831 36.078C91.4135 37.9615 89.7424 39.3464 87.9697 40.2328C86.2155 41.1006 84.3136 41.5346 82.2639 41.5346C81.1375 41.5346 80.1865 41.3684 79.411 41.036C78.6355 40.7221 78.0076 40.2882 77.5275 39.7342C77.0474 39.1802 76.6966 38.5339 76.475 37.7953C76.2719 37.0567 76.1703 36.2719 76.1703 35.441C76.1703 34.4992 76.2903 33.5298 76.5304 32.5327C76.7704 31.5171 77.0844 30.5384 77.4721 29.5967C77.7306 28.9873 77.943 28.4795 78.1092 28.0733C78.2754 27.667 78.4139 27.3254 78.5247 27.0484C78.6355 26.753 78.7278 26.5037 78.8016 26.3006C78.894 26.079 78.9863 25.8574 79.0786 25.6358C79.1709 25.3958 79.2817 25.128 79.411 24.8326C79.5403 24.5187 79.7157 24.1217 79.9373 23.6416L88.0251 5.66548C88.1359 5.42543 88.2929 5.19462 88.496 4.97303C88.7176 4.75144 88.9669 4.55756 89.2438 4.39137C89.5208 4.20671 89.8163 4.06822 90.1302 3.9759C90.4626 3.8651 90.7949 3.80971 91.1273 3.80971C91.9767 3.80971 92.5676 3.9759 92.9 4.30827C93.2508 4.64065 93.4263 5.04689 93.4263 5.52699C93.4263 5.8963 93.3339 6.30254 93.1493 6.74571C92.9646 7.17042 92.7615 7.56742 92.5399 7.93673C91.1735 10.5588 89.8809 13.2271 88.6622 15.9415C87.4435 18.6374 86.1509 21.3057 84.7844 23.9463C85.3753 23.4846 86.0032 23.0414 86.6679 22.6167C87.3327 22.1736 88.0251 21.7858 88.7453 21.4534C89.4654 21.1026 90.2133 20.8256 90.9888 20.6225C91.7644 20.4009 92.5584 20.2901 93.3709 20.2901C93.9433 20.2901 94.525 20.4009 95.1158 20.6225C95.7067 20.8441 96.2422 21.1672 96.7223 21.5919C97.2209 22.0166 97.6179 22.5429 97.9134 23.1707C98.2273 23.7801 98.3842 24.491 98.3842 25.3035C98.3842 25.4881 98.3288 25.8574 98.218 26.4114C98.1072 26.9654 97.9411 27.5932 97.7195 28.2949C97.5163 28.9781 97.2578 29.689 96.9439 30.4276C96.6485 31.1478 96.3161 31.7848 95.9468 32.3388C96.076 32.5419 96.2422 32.6712 96.4454 32.7266C96.6485 32.7635 96.8793 32.782 97.1378 32.782C97.9872 32.782 98.8274 32.6712 99.6583 32.4496C100.508 32.228 101.302 31.9602 102.04 31.6463C102.797 31.314 103.49 30.9723 104.118 30.6215C104.746 30.2707 105.272 29.966 105.697 29.7075C105.918 29.4674 106.158 29.3474 106.417 29.3474C106.731 29.3474 106.998 29.4859 107.22 29.7629C107.46 30.0398 107.58 30.3999 107.58 30.8431C107.58 31.2678 107.488 31.6925 107.303 32.1172C107.137 32.5234 106.823 32.9758 106.361 33.4744C105.53 33.973 104.69 34.4438 103.841 34.887C103.01 35.3302 102.16 35.718 101.293 36.0503C100.425 36.3643 99.5383 36.6228 98.6335 36.8259C97.7472 37.0105 96.8424 37.1029 95.9191 37.1029C95.3282 37.1029 94.7835 37.0198 94.2849 36.8536C93.7863 36.6874 93.3524 36.4289 92.9831 36.078ZM106.5 32.4496C106.297 32.8743 106.094 33.3729 105.89 33.9453C105.706 34.4992 105.613 34.9978 105.613 35.441C105.613 35.718 105.669 35.9395 105.78 36.1057C105.89 36.2719 106.103 36.355 106.417 36.355C106.804 36.355 107.285 36.2442 107.857 36.0226C108.448 35.7826 109.076 35.4779 109.74 35.1086C110.424 34.7208 111.125 34.2869 111.846 33.8068C112.584 33.3082 113.314 32.8004 114.034 32.2834C114.754 31.7479 115.437 31.2216 116.083 30.7046C116.748 30.1691 117.339 29.6798 117.856 29.2366C118.004 29.1073 118.179 29.015 118.382 28.9596C118.585 28.9042 118.761 28.8765 118.909 28.8765C119.278 28.8765 119.583 29.0058 119.823 29.2643C120.063 29.5228 120.183 29.8644 120.183 30.2891C120.183 30.6769 120.053 31.1108 119.795 31.5909C119.536 32.071 119.084 32.5419 118.438 33.0035C117.256 34.093 116.065 35.1271 114.865 36.1057C113.664 37.0844 112.464 37.9523 111.264 38.7094C110.082 39.448 108.9 40.0389 107.718 40.482C106.555 40.9252 105.42 41.1468 104.312 41.1468C103.555 41.1468 102.917 41.0452 102.4 40.8421C101.902 40.639 101.496 40.362 101.182 40.0112C100.886 39.6603 100.674 39.2449 100.545 38.7648C100.415 38.2847 100.351 37.7769 100.351 37.2414C100.351 36.3366 100.48 35.4133 100.739 34.4715C101.016 33.5113 101.339 32.6342 101.708 31.8402C102.354 30.3999 103.01 28.9689 103.675 27.547C104.339 26.1252 104.949 24.8234 105.503 23.6416L113.895 5.77628C114.228 5.05612 114.671 4.54833 115.225 4.25288C115.797 3.95743 116.37 3.80971 116.942 3.80971C117.514 3.80971 118.031 3.96666 118.493 4.28058C118.973 4.59449 119.213 5.10229 119.213 5.80397C119.213 6.13635 119.13 6.48719 118.964 6.8565C118.816 7.22581 118.622 7.62282 118.382 8.04752C117.921 8.9154 117.367 9.97716 116.72 11.2328C116.093 12.4885 115.409 13.8549 114.671 15.3321C113.951 16.8094 113.203 18.3512 112.427 19.9577C111.67 21.5457 110.922 23.0968 110.184 24.611C109.463 26.1252 108.78 27.5655 108.134 28.9319C107.506 30.2799 106.961 31.4525 106.5 32.4496ZM127.91 24.1124C127.818 24.094 127.735 24.0847 127.661 24.0847C127.587 24.0847 127.504 24.0847 127.412 24.0847C126.71 24.0847 126.055 24.2232 125.445 24.5002C124.836 24.7772 124.273 25.1465 123.756 25.6081C123.257 26.0513 122.805 26.5591 122.399 27.1315C122.011 27.704 121.66 28.2764 121.346 28.8488C121.032 29.4028 120.764 29.9383 120.543 30.4553C120.34 30.9723 120.183 31.4063 120.072 31.7571C120.718 31.4248 121.383 31.0462 122.066 30.6215C122.768 30.1968 123.423 29.7906 124.033 29.4028C124.642 29.015 125.168 28.6642 125.611 28.3503C126.073 28.0363 126.396 27.824 126.581 27.7132C127.412 27.1962 127.984 26.7161 128.298 26.2729C128.612 25.8113 128.769 25.4143 128.769 25.0819C128.769 24.8049 128.677 24.5833 128.492 24.4171C128.326 24.2509 128.132 24.1494 127.91 24.1124ZM128.908 20.2901C130.44 20.2901 131.585 20.6594 132.342 21.398C133.099 22.1366 133.478 23.1615 133.478 24.4725C133.478 25.2481 133.275 26.0605 132.868 26.91C132.462 27.7594 131.76 28.6272 130.763 29.5136C129.766 30.3815 128.427 31.277 126.747 32.2003C125.085 33.1051 122.999 34.0191 120.487 34.9424C120.58 35.4779 120.866 35.9026 121.346 36.2165C121.826 36.512 122.463 36.6597 123.257 36.6597C124.107 36.6597 125.011 36.5397 125.972 36.2996C126.95 36.0411 127.91 35.718 128.852 35.3302C129.812 34.9424 130.745 34.5269 131.65 34.0838C132.554 33.6221 133.367 33.1882 134.087 32.782C134.826 32.3757 135.435 32.0249 135.915 31.7294C136.414 31.434 136.746 31.2493 136.912 31.1755C137.079 31.0647 137.226 31 137.356 30.9816C137.503 30.9631 137.632 30.9539 137.743 30.9539C137.965 30.9539 138.15 31.0093 138.297 31.1201C138.445 31.2124 138.565 31.3324 138.657 31.4801C138.768 31.6094 138.842 31.7571 138.879 31.9233C138.916 32.071 138.934 32.2003 138.934 32.3111C138.934 32.4773 138.916 32.6804 138.879 32.9205C138.842 33.142 138.703 33.4006 138.463 33.696C138.371 33.7883 138.057 34.0376 137.522 34.4438C137.005 34.8501 136.331 35.3302 135.5 35.8842C134.669 36.4381 133.699 37.029 132.591 37.6568C131.502 38.2662 130.339 38.8294 129.101 39.3464C127.883 39.8635 126.609 40.2882 125.279 40.6205C123.95 40.9714 122.639 41.1468 121.346 41.1468C120.238 41.1468 119.25 40.9344 118.382 40.5097C117.533 40.085 116.803 39.5126 116.194 38.7925C115.603 38.0723 115.151 37.2414 114.837 36.2996C114.523 35.3579 114.366 34.37 114.366 33.3359C114.366 32.5419 114.523 31.674 114.837 30.7323C115.151 29.7721 115.603 28.8119 116.194 27.8517C116.785 26.8915 117.505 25.959 118.355 25.0542C119.222 24.1309 120.192 23.3184 121.263 22.6167C122.334 21.9151 123.506 21.3519 124.781 20.9272C126.073 20.5025 127.449 20.2901 128.908 20.2901ZM145.637 24.3063C146.357 23.8632 147.096 23.4569 147.853 23.0876C148.629 22.7183 149.377 22.4044 150.097 22.1459C150.817 21.8689 151.5 21.6565 152.146 21.5088C152.811 21.3426 153.402 21.2595 153.919 21.2595C154.75 21.2595 155.387 21.4627 155.83 21.8689C156.292 22.2567 156.523 22.9214 156.523 23.8632C156.523 24.0663 156.513 24.2879 156.495 24.5279C156.476 24.7495 156.44 24.9896 156.384 25.2481C156.292 25.7282 156.015 26.2914 155.553 26.9377C155.092 27.5839 154.547 28.2579 153.919 28.9596C153.31 29.6613 152.645 30.3722 151.925 31.0924C151.223 31.7941 150.568 32.4496 149.958 33.0589C149.367 33.6498 148.869 34.1669 148.462 34.61C148.075 35.0532 147.881 35.3579 147.881 35.5241C147.881 35.6718 147.89 35.7734 147.909 35.8288C147.927 35.8842 148.01 35.9119 148.158 35.9119C149.155 35.4871 150.263 34.9793 151.482 34.3885C152.719 33.7791 153.947 33.1605 155.165 32.5327C156.384 31.9049 157.538 31.2955 158.628 30.7046C159.717 30.0952 160.64 29.569 161.397 29.1258C161.564 29.0335 161.73 28.9596 161.896 28.9042C162.081 28.8304 162.247 28.7934 162.395 28.7934C162.727 28.7934 163.004 28.9042 163.226 29.1258C163.447 29.3474 163.558 29.6428 163.558 30.0121C163.558 30.4369 163.373 30.9262 163.004 31.4801C162.653 32.0156 162.053 32.5788 161.204 33.1697C160.557 33.576 159.828 34.0376 159.015 34.5546C158.221 35.0532 157.381 35.5795 156.495 36.1334C155.627 36.6689 154.741 37.1952 153.836 37.7122C152.95 38.2293 152.091 38.6909 151.26 39.0971C150.429 39.5034 149.644 39.8358 148.906 40.0943C148.185 40.3343 147.558 40.4543 147.022 40.4543C145.748 40.4543 144.788 40.1497 144.142 39.5403C143.514 38.9309 143.2 38.1462 143.2 37.186C143.2 37.0382 143.209 36.9274 143.228 36.8536C143.357 36.0411 143.597 35.2563 143.948 34.4992C144.299 33.7422 144.696 33.022 145.139 32.3388C145.582 31.6556 146.043 31.0093 146.524 30.3999C147.004 29.7721 147.438 29.1904 147.825 28.6549C148.232 28.101 148.564 27.5932 148.823 27.1315C149.081 26.6699 149.21 26.2452 149.21 25.8574C149.21 25.7651 149.192 25.6728 149.155 25.5804C149.118 25.4881 149.035 25.442 148.906 25.442C148.684 25.442 148.315 25.525 147.798 25.6912C147.299 25.8574 146.764 26.079 146.191 26.356C145.619 26.633 145.074 26.9561 144.557 27.3254C144.04 27.6763 143.671 28.0548 143.449 28.4611C143.154 28.9781 142.812 29.6336 142.424 30.4276C142.036 31.2216 141.63 32.0526 141.206 32.9205C140.799 33.7883 140.402 34.647 140.015 35.4964C139.627 36.3458 139.294 37.0752 139.017 37.6845C138.796 38.22 138.5 38.7001 138.131 39.1248C137.78 39.5495 137.392 39.9096 136.968 40.2051C136.543 40.5005 136.109 40.7313 135.666 40.8975C135.223 41.0637 134.817 41.1468 134.447 41.1468C134.023 41.1468 133.681 41.036 133.422 40.8144C133.182 40.5928 133.062 40.2328 133.062 39.7342C133.062 39.5311 133.09 39.2818 133.145 38.9863C133.219 38.6724 133.358 38.3308 133.561 37.9615C133.893 37.3337 134.226 36.6505 134.558 35.9119C134.909 35.1732 135.306 34.3331 135.749 33.3913C136.192 32.4311 136.7 31.3417 137.272 30.1229C137.863 28.8858 138.556 27.4639 139.35 25.8574C139.091 25.6358 138.87 25.3681 138.685 25.0542C138.519 24.7218 138.436 24.3156 138.436 23.8355C138.436 23.3923 138.528 23.0138 138.713 22.6998C138.897 22.3675 139.147 22.0997 139.461 21.8966C139.774 21.6935 140.135 21.5457 140.541 21.4534C140.966 21.3426 141.409 21.2872 141.87 21.2872C142.35 21.2872 142.831 21.3334 143.311 21.4257C143.791 21.4996 144.215 21.6196 144.585 21.7858C144.973 21.952 145.286 22.1551 145.526 22.3952C145.767 22.6352 145.887 22.9122 145.887 23.2261C145.887 23.2815 145.868 23.3554 145.831 23.4477C145.794 23.54 145.748 23.6416 145.693 23.7524C145.656 23.8632 145.619 23.9647 145.582 24.057C145.545 24.1494 145.526 24.2232 145.526 24.2786C145.526 24.3156 145.536 24.334 145.554 24.334H145.582L145.637 24.3063ZM178.487 2.56329C177.73 3.65275 177.001 4.69605 176.299 5.69318C175.616 6.67185 174.923 7.65052 174.222 8.62918C173.539 9.58939 172.846 10.5681 172.144 11.5652C171.443 12.5623 170.723 13.5964 169.984 14.6674C169.688 15.0921 169.384 15.3968 169.07 15.5814C168.756 15.7661 168.451 15.8584 168.156 15.8584C167.86 15.8584 167.62 15.7845 167.436 15.6368C167.251 15.4891 167.159 15.2952 167.159 15.0552C167.159 14.9444 167.186 14.8151 167.242 14.6674C167.648 13.5964 168.027 12.5623 168.377 11.5652C168.747 10.5681 169.107 9.58939 169.458 8.62918C169.808 7.65052 170.159 6.67185 170.51 5.69318C170.879 4.69605 171.267 3.65275 171.674 2.56329C171.803 2.17552 172.015 1.84314 172.311 1.56616C172.606 1.27071 172.948 1.03989 173.335 0.873705C173.723 0.689051 174.139 0.550561 174.582 0.458233C175.025 0.365906 175.459 0.319743 175.884 0.319743C176.271 0.319743 176.631 0.356674 176.964 0.430535C177.315 0.485932 177.619 0.578259 177.878 0.707517C178.136 0.836775 178.34 0.993731 178.487 1.17838C178.653 1.36304 178.737 1.57539 178.737 1.81544C178.737 2.03703 178.653 2.28631 178.487 2.56329ZM184.248 24.8603C185.375 25.4512 186.381 26.1252 187.268 26.8823C188.154 27.6393 188.902 28.4426 189.511 29.292C190.139 30.1229 190.61 30.9723 190.924 31.8402C191.256 32.7081 191.422 33.5575 191.422 34.3885C191.422 35.441 191.118 36.392 190.508 37.2414C189.917 38.0723 189.133 38.7832 188.154 39.3741C187.194 39.9465 186.086 40.3805 184.83 40.6759C183.593 40.9898 182.337 41.1468 181.063 41.1468C180.103 41.1468 179.17 41.036 178.266 40.8144C177.361 40.6113 176.53 40.2882 175.773 39.845C175.034 39.4018 174.397 38.8386 173.862 38.1554C173.326 37.4537 172.948 36.6228 172.726 35.6626C172.689 35.5148 172.671 35.3948 172.671 35.3025C172.671 34.8039 172.846 34.3792 173.197 34.0284C173.548 33.6591 173.936 33.4744 174.36 33.4744C174.563 33.4744 174.785 33.5113 175.025 33.5852C175.283 33.6591 175.477 33.8253 175.607 34.0838C175.847 34.5269 176.179 34.924 176.604 35.2748C177.047 35.6256 177.536 35.9303 178.072 36.1888C178.607 36.4289 179.17 36.6228 179.761 36.7705C180.371 36.8998 180.962 36.9644 181.534 36.9644C182.125 36.9644 182.688 36.909 183.224 36.7982C183.778 36.6874 184.258 36.512 184.664 36.2719C185.089 36.0319 185.421 35.7272 185.661 35.3579C185.901 34.9886 186.021 34.5362 186.021 34.0007C186.021 33.0589 185.809 32.1911 185.384 31.3971C184.959 30.603 184.405 29.8737 183.722 29.2089C183.057 28.5257 182.291 27.8979 181.423 27.3254C180.574 26.7345 179.724 26.1713 178.875 25.6358C178.783 25.5804 178.644 25.4235 178.46 25.165C178.275 24.888 178.183 24.611 178.183 24.334C178.183 24.1124 178.238 23.937 178.349 23.8078C178.644 23.42 178.986 23.023 179.374 22.6167C179.761 22.2105 180.177 21.8412 180.62 21.5088C181.063 21.158 181.543 20.881 182.06 20.6779C182.577 20.4563 183.113 20.3455 183.667 20.3455C184.073 20.3455 184.452 20.4009 184.802 20.5117C185.153 20.6225 185.449 20.7702 185.689 20.9549C185.929 21.121 186.113 21.3149 186.243 21.5365C186.39 21.7396 186.464 21.9335 186.464 22.1182C186.464 22.3767 186.4 22.626 186.27 22.866C186.141 23.1061 185.966 23.3369 185.744 23.5585C185.541 23.7801 185.301 24.0017 185.024 24.2232C184.765 24.4448 184.507 24.6572 184.248 24.8603Z" fill="#2B2B2B"/>
</svg>
